<mxfile host="app.diagrams.net" modified="2021-05-28T00:58:36.439Z" agent="5.0 (Windows NT 10.0; Win64; x64) AppleWebKit/537.36 (KHTML, like Gecko) Chrome/90.0.4430.212 Safari/537.36" etag="4D8sAaKW3sF8wgoOsHxP" version="14.7.2" type="github">
  <diagram id="OkxdWkbvvtWgahMaxkt5" name="Page-1">
    <mxGraphModel dx="868" dy="464" grid="1" gridSize="10" guides="1" tooltips="1" connect="1" arrows="1" fold="1" page="1" pageScale="1" pageWidth="827" pageHeight="1169" math="0" shadow="0">
      <root>
        <mxCell id="0" />
        <mxCell id="1" parent="0" />
        <mxCell id="HrrgeJkFublqdZV04HGa-5" style="edgeStyle=orthogonalEdgeStyle;rounded=0;orthogonalLoop=1;jettySize=auto;html=1;exitX=0.25;exitY=0;exitDx=0;exitDy=0;entryX=1;entryY=0.5;entryDx=0;entryDy=0;" edge="1" parent="1" source="HrrgeJkFublqdZV04HGa-1" target="HrrgeJkFublqdZV04HGa-2">
          <mxGeometry relative="1" as="geometry">
            <Array as="points">
              <mxPoint x="220" y="120" />
              <mxPoint x="220" y="65" />
            </Array>
          </mxGeometry>
        </mxCell>
        <mxCell id="HrrgeJkFublqdZV04HGa-7" value="" style="edgeStyle=orthogonalEdgeStyle;rounded=0;orthogonalLoop=1;jettySize=auto;html=1;" edge="1" parent="1" source="HrrgeJkFublqdZV04HGa-1" target="HrrgeJkFublqdZV04HGa-6">
          <mxGeometry relative="1" as="geometry" />
        </mxCell>
        <mxCell id="HrrgeJkFublqdZV04HGa-11" style="edgeStyle=orthogonalEdgeStyle;rounded=0;orthogonalLoop=1;jettySize=auto;html=1;exitX=0.75;exitY=0;exitDx=0;exitDy=0;" edge="1" parent="1" source="HrrgeJkFublqdZV04HGa-1" target="HrrgeJkFublqdZV04HGa-8">
          <mxGeometry relative="1" as="geometry" />
        </mxCell>
        <mxCell id="HrrgeJkFublqdZV04HGa-12" style="edgeStyle=orthogonalEdgeStyle;rounded=0;orthogonalLoop=1;jettySize=auto;html=1;exitX=1;exitY=0;exitDx=0;exitDy=0;entryX=0;entryY=1;entryDx=0;entryDy=0;" edge="1" parent="1" source="HrrgeJkFublqdZV04HGa-1" target="HrrgeJkFublqdZV04HGa-10">
          <mxGeometry relative="1" as="geometry">
            <Array as="points">
              <mxPoint x="320" y="100" />
              <mxPoint x="345" y="100" />
              <mxPoint x="345" y="103" />
            </Array>
          </mxGeometry>
        </mxCell>
        <mxCell id="HrrgeJkFublqdZV04HGa-1" value="Productos" style="rounded=0;whiteSpace=wrap;html=1;" vertex="1" parent="1">
          <mxGeometry x="210" y="120" width="110" height="40" as="geometry" />
        </mxCell>
        <mxCell id="HrrgeJkFublqdZV04HGa-2" value="idProducto" style="ellipse;whiteSpace=wrap;html=1;fillColor=#CCFF99;" vertex="1" parent="1">
          <mxGeometry x="100" y="30" width="90" height="50" as="geometry" />
        </mxCell>
        <mxCell id="HrrgeJkFublqdZV04HGa-6" value="Nombre" style="ellipse;whiteSpace=wrap;html=1;rounded=0;" vertex="1" parent="1">
          <mxGeometry x="205" y="10" width="85" height="40" as="geometry" />
        </mxCell>
        <mxCell id="HrrgeJkFublqdZV04HGa-8" value="Codigo" style="ellipse;whiteSpace=wrap;html=1;" vertex="1" parent="1">
          <mxGeometry x="300" y="10" width="80" height="45" as="geometry" />
        </mxCell>
        <mxCell id="HrrgeJkFublqdZV04HGa-10" value="Descripcion" style="ellipse;whiteSpace=wrap;html=1;" vertex="1" parent="1">
          <mxGeometry x="370" y="60" width="90" height="50" as="geometry" />
        </mxCell>
        <mxCell id="HrrgeJkFublqdZV04HGa-17" style="edgeStyle=orthogonalEdgeStyle;rounded=0;orthogonalLoop=1;jettySize=auto;html=1;exitX=0.25;exitY=1;exitDx=0;exitDy=0;entryX=0.5;entryY=0;entryDx=0;entryDy=0;" edge="1" parent="1" source="HrrgeJkFublqdZV04HGa-13" target="HrrgeJkFublqdZV04HGa-16">
          <mxGeometry relative="1" as="geometry" />
        </mxCell>
        <mxCell id="HrrgeJkFublqdZV04HGa-18" style="edgeStyle=orthogonalEdgeStyle;rounded=0;orthogonalLoop=1;jettySize=auto;html=1;exitX=0.75;exitY=1;exitDx=0;exitDy=0;entryX=0.5;entryY=0;entryDx=0;entryDy=0;" edge="1" parent="1" source="HrrgeJkFublqdZV04HGa-13" target="HrrgeJkFublqdZV04HGa-15">
          <mxGeometry relative="1" as="geometry" />
        </mxCell>
        <mxCell id="HrrgeJkFublqdZV04HGa-35" style="edgeStyle=orthogonalEdgeStyle;rounded=0;orthogonalLoop=1;jettySize=auto;html=1;exitX=0;exitY=0.5;exitDx=0;exitDy=0;entryX=0.5;entryY=0;entryDx=0;entryDy=0;" edge="1" parent="1" source="HrrgeJkFublqdZV04HGa-13" target="HrrgeJkFublqdZV04HGa-14">
          <mxGeometry relative="1" as="geometry" />
        </mxCell>
        <mxCell id="HrrgeJkFublqdZV04HGa-13" value="Proveedores" style="rounded=0;whiteSpace=wrap;html=1;" vertex="1" parent="1">
          <mxGeometry x="120" y="200" width="110" height="40" as="geometry" />
        </mxCell>
        <mxCell id="HrrgeJkFublqdZV04HGa-14" value="Telefono" style="ellipse;whiteSpace=wrap;html=1;" vertex="1" parent="1">
          <mxGeometry y="260" width="100" height="60" as="geometry" />
        </mxCell>
        <mxCell id="HrrgeJkFublqdZV04HGa-15" value="Rubro" style="ellipse;whiteSpace=wrap;html=1;" vertex="1" parent="1">
          <mxGeometry x="240" y="270" width="100" height="60" as="geometry" />
        </mxCell>
        <mxCell id="HrrgeJkFublqdZV04HGa-16" value="idProveedores" style="ellipse;whiteSpace=wrap;html=1;" vertex="1" parent="1">
          <mxGeometry x="120" y="280" width="100" height="60" as="geometry" />
        </mxCell>
        <mxCell id="HrrgeJkFublqdZV04HGa-25" style="edgeStyle=orthogonalEdgeStyle;rounded=0;orthogonalLoop=1;jettySize=auto;html=1;exitX=0.5;exitY=0;exitDx=0;exitDy=0;entryX=0.5;entryY=1;entryDx=0;entryDy=0;" edge="1" parent="1" source="HrrgeJkFublqdZV04HGa-20" target="HrrgeJkFublqdZV04HGa-24">
          <mxGeometry relative="1" as="geometry" />
        </mxCell>
        <mxCell id="HrrgeJkFublqdZV04HGa-26" style="edgeStyle=orthogonalEdgeStyle;rounded=0;orthogonalLoop=1;jettySize=auto;html=1;exitX=1;exitY=0.5;exitDx=0;exitDy=0;entryX=0;entryY=0.5;entryDx=0;entryDy=0;" edge="1" parent="1" source="HrrgeJkFublqdZV04HGa-20" target="HrrgeJkFublqdZV04HGa-23">
          <mxGeometry relative="1" as="geometry" />
        </mxCell>
        <mxCell id="HrrgeJkFublqdZV04HGa-27" style="edgeStyle=orthogonalEdgeStyle;rounded=0;orthogonalLoop=1;jettySize=auto;html=1;exitX=0.5;exitY=1;exitDx=0;exitDy=0;entryX=0.5;entryY=0;entryDx=0;entryDy=0;" edge="1" parent="1" source="HrrgeJkFublqdZV04HGa-20" target="HrrgeJkFublqdZV04HGa-22">
          <mxGeometry relative="1" as="geometry" />
        </mxCell>
        <mxCell id="HrrgeJkFublqdZV04HGa-20" value="Clientes" style="rounded=0;whiteSpace=wrap;html=1;" vertex="1" parent="1">
          <mxGeometry x="560" y="120" width="120" height="40" as="geometry" />
        </mxCell>
        <mxCell id="HrrgeJkFublqdZV04HGa-22" value="Email" style="ellipse;whiteSpace=wrap;html=1;" vertex="1" parent="1">
          <mxGeometry x="560" y="210" width="100" height="60" as="geometry" />
        </mxCell>
        <mxCell id="HrrgeJkFublqdZV04HGa-23" value="Nombre" style="ellipse;whiteSpace=wrap;html=1;" vertex="1" parent="1">
          <mxGeometry x="710" y="110" width="100" height="60" as="geometry" />
        </mxCell>
        <mxCell id="HrrgeJkFublqdZV04HGa-24" value="idCliente" style="ellipse;whiteSpace=wrap;html=1;" vertex="1" parent="1">
          <mxGeometry x="560" y="10" width="100" height="60" as="geometry" />
        </mxCell>
        <mxCell id="HrrgeJkFublqdZV04HGa-32" style="edgeStyle=orthogonalEdgeStyle;rounded=0;orthogonalLoop=1;jettySize=auto;html=1;exitX=0.25;exitY=1;exitDx=0;exitDy=0;entryX=0;entryY=0.5;entryDx=0;entryDy=0;" edge="1" parent="1" source="HrrgeJkFublqdZV04HGa-28" target="HrrgeJkFublqdZV04HGa-30">
          <mxGeometry relative="1" as="geometry" />
        </mxCell>
        <mxCell id="HrrgeJkFublqdZV04HGa-33" style="edgeStyle=orthogonalEdgeStyle;rounded=0;orthogonalLoop=1;jettySize=auto;html=1;exitX=1;exitY=0.5;exitDx=0;exitDy=0;entryX=0;entryY=0.5;entryDx=0;entryDy=0;" edge="1" parent="1" source="HrrgeJkFublqdZV04HGa-28" target="HrrgeJkFublqdZV04HGa-31">
          <mxGeometry relative="1" as="geometry" />
        </mxCell>
        <mxCell id="HrrgeJkFublqdZV04HGa-28" value="Categorias&lt;span style=&quot;color: rgba(0 , 0 , 0 , 0) ; font-family: monospace ; font-size: 0px&quot;&gt;%3CmxGraphModel%3E%3Croot%3E%3CmxCell%20id%3D%220%22%2F%3E%3CmxCell%20id%3D%221%22%20parent%3D%220%22%2F%3E%3CmxCell%20id%3D%222%22%20value%3D%22Telefono%22%20style%3D%22ellipse%3BwhiteSpace%3Dwrap%3Bhtml%3D1%3B%22%20vertex%3D%221%22%20parent%3D%221%22%3E%3CmxGeometry%20x%3D%22290%22%20y%3D%22200%22%20width%3D%22100%22%20height%3D%2260%22%20as%3D%22geometry%22%2F%3E%3C%2FmxCell%3E%3C%2Froot%3E%3C%2FmxGraphModel%3E&lt;/span&gt;" style="rounded=0;whiteSpace=wrap;html=1;" vertex="1" parent="1">
          <mxGeometry x="560" y="320" width="120" height="40" as="geometry" />
        </mxCell>
        <mxCell id="HrrgeJkFublqdZV04HGa-30" value="idCategorias" style="ellipse;whiteSpace=wrap;html=1;" vertex="1" parent="1">
          <mxGeometry x="600" y="400" width="100" height="60" as="geometry" />
        </mxCell>
        <mxCell id="HrrgeJkFublqdZV04HGa-31" value="Nombre" style="ellipse;whiteSpace=wrap;html=1;" vertex="1" parent="1">
          <mxGeometry x="720" y="320" width="100" height="60" as="geometry" />
        </mxCell>
        <mxCell id="HrrgeJkFublqdZV04HGa-36" style="edgeStyle=orthogonalEdgeStyle;rounded=0;orthogonalLoop=1;jettySize=auto;html=1;exitX=0;exitY=0.5;exitDx=0;exitDy=0;entryX=1;entryY=0.5;entryDx=0;entryDy=0;" edge="1" parent="1" source="HrrgeJkFublqdZV04HGa-34" target="HrrgeJkFublqdZV04HGa-1">
          <mxGeometry relative="1" as="geometry" />
        </mxCell>
        <mxCell id="HrrgeJkFublqdZV04HGa-37" style="edgeStyle=orthogonalEdgeStyle;rounded=0;orthogonalLoop=1;jettySize=auto;html=1;exitX=1;exitY=0.5;exitDx=0;exitDy=0;entryX=0;entryY=0.5;entryDx=0;entryDy=0;" edge="1" parent="1" source="HrrgeJkFublqdZV04HGa-34" target="HrrgeJkFublqdZV04HGa-28">
          <mxGeometry relative="1" as="geometry" />
        </mxCell>
        <mxCell id="HrrgeJkFublqdZV04HGa-34" value="Asociada" style="rhombus;whiteSpace=wrap;html=1;" vertex="1" parent="1">
          <mxGeometry x="400" y="160" width="80" height="80" as="geometry" />
        </mxCell>
        <mxCell id="HrrgeJkFublqdZV04HGa-38" value="1" style="text;html=1;strokeColor=none;fillColor=none;align=center;verticalAlign=middle;whiteSpace=wrap;rounded=0;" vertex="1" parent="1">
          <mxGeometry x="320" y="120" width="40" height="20" as="geometry" />
        </mxCell>
        <mxCell id="HrrgeJkFublqdZV04HGa-39" value="N" style="text;html=1;strokeColor=none;fillColor=none;align=center;verticalAlign=middle;whiteSpace=wrap;rounded=0;" vertex="1" parent="1">
          <mxGeometry x="520" y="320" width="40" height="20" as="geometry" />
        </mxCell>
        <mxCell id="HrrgeJkFublqdZV04HGa-50" style="edgeStyle=orthogonalEdgeStyle;rounded=0;orthogonalLoop=1;jettySize=auto;html=1;exitX=0.5;exitY=1;exitDx=0;exitDy=0;entryX=0.5;entryY=0;entryDx=0;entryDy=0;" edge="1" parent="1" source="HrrgeJkFublqdZV04HGa-40" target="HrrgeJkFublqdZV04HGa-41">
          <mxGeometry relative="1" as="geometry" />
        </mxCell>
        <mxCell id="HrrgeJkFublqdZV04HGa-51" style="edgeStyle=orthogonalEdgeStyle;rounded=0;orthogonalLoop=1;jettySize=auto;html=1;exitX=0;exitY=0;exitDx=0;exitDy=0;entryX=0.5;entryY=1;entryDx=0;entryDy=0;" edge="1" parent="1" source="HrrgeJkFublqdZV04HGa-40" target="HrrgeJkFublqdZV04HGa-1">
          <mxGeometry relative="1" as="geometry" />
        </mxCell>
        <mxCell id="HrrgeJkFublqdZV04HGa-40" value="Tiene&lt;br&gt;" style="rhombus;whiteSpace=wrap;html=1;fillColor=#FFFFFF;" vertex="1" parent="1">
          <mxGeometry x="350" y="210" width="80" height="80" as="geometry" />
        </mxCell>
        <mxCell id="HrrgeJkFublqdZV04HGa-46" style="edgeStyle=orthogonalEdgeStyle;rounded=0;orthogonalLoop=1;jettySize=auto;html=1;exitX=0;exitY=0.5;exitDx=0;exitDy=0;entryX=1;entryY=0.5;entryDx=0;entryDy=0;" edge="1" parent="1" source="HrrgeJkFublqdZV04HGa-41" target="HrrgeJkFublqdZV04HGa-44">
          <mxGeometry relative="1" as="geometry" />
        </mxCell>
        <mxCell id="HrrgeJkFublqdZV04HGa-41" value="Precio" style="rounded=0;whiteSpace=wrap;html=1;" vertex="1" parent="1">
          <mxGeometry x="200" y="400" width="110" height="40" as="geometry" />
        </mxCell>
        <mxCell id="HrrgeJkFublqdZV04HGa-45" style="edgeStyle=orthogonalEdgeStyle;rounded=0;orthogonalLoop=1;jettySize=auto;html=1;exitX=0.5;exitY=0;exitDx=0;exitDy=0;entryX=0.5;entryY=1;entryDx=0;entryDy=0;" edge="1" parent="1" source="HrrgeJkFublqdZV04HGa-42" target="HrrgeJkFublqdZV04HGa-41">
          <mxGeometry relative="1" as="geometry" />
        </mxCell>
        <mxCell id="HrrgeJkFublqdZV04HGa-42" value="Impuesto" style="ellipse;whiteSpace=wrap;html=1;" vertex="1" parent="1">
          <mxGeometry x="250" y="480" width="100" height="60" as="geometry" />
        </mxCell>
        <mxCell id="HrrgeJkFublqdZV04HGa-47" style="edgeStyle=orthogonalEdgeStyle;rounded=0;orthogonalLoop=1;jettySize=auto;html=1;exitX=1;exitY=0;exitDx=0;exitDy=0;entryX=0.25;entryY=1;entryDx=0;entryDy=0;" edge="1" parent="1" source="HrrgeJkFublqdZV04HGa-43" target="HrrgeJkFublqdZV04HGa-41">
          <mxGeometry relative="1" as="geometry" />
        </mxCell>
        <mxCell id="HrrgeJkFublqdZV04HGa-43" value="Valor" style="ellipse;whiteSpace=wrap;html=1;" vertex="1" parent="1">
          <mxGeometry x="140" y="460" width="100" height="60" as="geometry" />
        </mxCell>
        <mxCell id="HrrgeJkFublqdZV04HGa-44" value="idPrecios" style="ellipse;whiteSpace=wrap;html=1;" vertex="1" parent="1">
          <mxGeometry x="60" y="390" width="100" height="60" as="geometry" />
        </mxCell>
        <mxCell id="HrrgeJkFublqdZV04HGa-52" value="1" style="text;html=1;strokeColor=none;fillColor=none;align=center;verticalAlign=middle;whiteSpace=wrap;rounded=0;" vertex="1" parent="1">
          <mxGeometry x="260" y="170" width="40" height="20" as="geometry" />
        </mxCell>
        <mxCell id="HrrgeJkFublqdZV04HGa-53" value="1" style="text;html=1;strokeColor=none;fillColor=none;align=center;verticalAlign=middle;whiteSpace=wrap;rounded=0;" vertex="1" parent="1">
          <mxGeometry x="250" y="370" width="40" height="20" as="geometry" />
        </mxCell>
      </root>
    </mxGraphModel>
  </diagram>
</mxfile>
